<mxfile host="app.diagrams.net" modified="2023-12-17T17:38:54.260Z" agent="Mozilla/5.0 (Windows NT 10.0; Win64; x64) AppleWebKit/537.36 (KHTML, like Gecko) Chrome/120.0.0.0 Safari/537.36" etag="kjO0yQ467aCB2VTjAOL4" version="22.1.11" type="github">
  <diagram name="Seite-1" id="18Wy0e9a14y2iKfFiZvs">
    <mxGraphModel dx="1518" dy="681" grid="1" gridSize="10" guides="1" tooltips="1" connect="1" arrows="1" fold="1" page="1" pageScale="1" pageWidth="827" pageHeight="1169" math="0" shadow="0">
      <root>
        <mxCell id="0" />
        <mxCell id="1" parent="0" />
        <mxCell id="7-9NOZU4NKzgfEW0f55U-1" value="activity: Versandlabel generieren" style="shape=umlFrame;whiteSpace=wrap;html=1;pointerEvents=0;recursiveResize=0;container=1;collapsible=0;width=160;" parent="1" vertex="1">
          <mxGeometry x="110" y="50" width="450" height="840" as="geometry" />
        </mxCell>
        <mxCell id="7-9NOZU4NKzgfEW0f55U-20" value="" style="edgeStyle=orthogonalEdgeStyle;rounded=0;orthogonalLoop=1;jettySize=auto;html=1;entryX=0.5;entryY=0;entryDx=0;entryDy=0;" parent="7-9NOZU4NKzgfEW0f55U-1" source="7-9NOZU4NKzgfEW0f55U-2" target="7-9NOZU4NKzgfEW0f55U-8" edge="1">
          <mxGeometry relative="1" as="geometry">
            <mxPoint x="300" y="315" as="targetPoint" />
          </mxGeometry>
        </mxCell>
        <mxCell id="AlCIt3RjvGgdDV8iWQWg-56" value="ja" style="edgeLabel;html=1;align=center;verticalAlign=middle;resizable=0;points=[];" vertex="1" connectable="0" parent="7-9NOZU4NKzgfEW0f55U-20">
          <mxGeometry x="-0.6352" relative="1" as="geometry">
            <mxPoint as="offset" />
          </mxGeometry>
        </mxCell>
        <mxCell id="8ZjAo5hcSu2O5ueR2Of1-4" value="PaketID eingeben" style="rounded=1;whiteSpace=wrap;html=1;fillColor=#fff2cc;strokeColor=#d6b656;" parent="7-9NOZU4NKzgfEW0f55U-1" vertex="1">
          <mxGeometry x="160" y="120" width="120" height="60" as="geometry" />
        </mxCell>
        <mxCell id="7-9NOZU4NKzgfEW0f55U-12" value="Deadline &amp;lt; &quot;today&quot;&amp;nbsp;" style="text;html=1;align=center;verticalAlign=middle;resizable=0;points=[];autosize=1;strokeColor=none;fillColor=none;" parent="7-9NOZU4NKzgfEW0f55U-1" vertex="1">
          <mxGeometry x="30" y="195" width="130" height="30" as="geometry" />
        </mxCell>
        <mxCell id="8ZjAo5hcSu2O5ueR2Of1-1" value="" style="ellipse;whiteSpace=wrap;html=1;fillColor=strokeColor;" parent="7-9NOZU4NKzgfEW0f55U-1" vertex="1">
          <mxGeometry x="205" y="50" width="30" height="30" as="geometry" />
        </mxCell>
        <mxCell id="8ZjAo5hcSu2O5ueR2Of1-5" value="" style="edgeStyle=orthogonalEdgeStyle;rounded=0;orthogonalLoop=1;jettySize=auto;html=1;" parent="7-9NOZU4NKzgfEW0f55U-1" source="8ZjAo5hcSu2O5ueR2Of1-1" target="8ZjAo5hcSu2O5ueR2Of1-4" edge="1">
          <mxGeometry relative="1" as="geometry" />
        </mxCell>
        <mxCell id="8ZjAo5hcSu2O5ueR2Of1-19" value="a" style="ellipse;html=1;shape=endState;fillColor=strokeColor;" parent="7-9NOZU4NKzgfEW0f55U-1" vertex="1">
          <mxGeometry x="195" y="770" width="30" height="30" as="geometry" />
        </mxCell>
        <mxCell id="7-9NOZU4NKzgfEW0f55U-22" value="Paketstatus &quot;canceled&quot;" style="whiteSpace=wrap;html=1;fillColor=#fff2cc;strokeColor=#d6b656;rounded=1;" parent="7-9NOZU4NKzgfEW0f55U-1" vertex="1">
          <mxGeometry x="150" y="400" width="120" height="60" as="geometry" />
        </mxCell>
        <mxCell id="AlCIt3RjvGgdDV8iWQWg-78" style="edgeStyle=orthogonalEdgeStyle;rounded=0;orthogonalLoop=1;jettySize=auto;html=1;exitX=0.5;exitY=1;exitDx=0;exitDy=0;entryX=1;entryY=0.5;entryDx=0;entryDy=0;" edge="1" parent="7-9NOZU4NKzgfEW0f55U-1" source="7-9NOZU4NKzgfEW0f55U-26" target="8ZjAo5hcSu2O5ueR2Of1-4">
          <mxGeometry relative="1" as="geometry">
            <mxPoint x="200" y="370" as="targetPoint" />
          </mxGeometry>
        </mxCell>
        <mxCell id="7-9NOZU4NKzgfEW0f55U-26" value="2 Tage warten" style="whiteSpace=wrap;html=1;fillColor=#fff2cc;strokeColor=#d6b656;rounded=1;" parent="7-9NOZU4NKzgfEW0f55U-1" vertex="1">
          <mxGeometry x="140" y="270" width="120" height="60" as="geometry" />
        </mxCell>
        <mxCell id="AlCIt3RjvGgdDV8iWQWg-74" value="" style="edgeStyle=orthogonalEdgeStyle;rounded=0;orthogonalLoop=1;jettySize=auto;html=1;exitX=0.5;exitY=1;exitDx=0;exitDy=0;entryX=0;entryY=0.5;entryDx=0;entryDy=0;" edge="1" parent="7-9NOZU4NKzgfEW0f55U-1" source="7-9NOZU4NKzgfEW0f55U-28" target="7-9NOZU4NKzgfEW0f55U-26">
          <mxGeometry relative="1" as="geometry">
            <Array as="points">
              <mxPoint x="98" y="300" />
            </Array>
          </mxGeometry>
        </mxCell>
        <mxCell id="AlCIt3RjvGgdDV8iWQWg-75" value="nein" style="edgeLabel;html=1;align=center;verticalAlign=middle;resizable=0;points=[];" vertex="1" connectable="0" parent="AlCIt3RjvGgdDV8iWQWg-74">
          <mxGeometry x="0.1498" relative="1" as="geometry">
            <mxPoint as="offset" />
          </mxGeometry>
        </mxCell>
        <mxCell id="AlCIt3RjvGgdDV8iWQWg-80" style="edgeStyle=orthogonalEdgeStyle;rounded=0;orthogonalLoop=1;jettySize=auto;html=1;exitX=0;exitY=0.5;exitDx=0;exitDy=0;entryX=0;entryY=0.5;entryDx=0;entryDy=0;" edge="1" parent="7-9NOZU4NKzgfEW0f55U-1" source="7-9NOZU4NKzgfEW0f55U-28" target="7-9NOZU4NKzgfEW0f55U-22">
          <mxGeometry relative="1" as="geometry" />
        </mxCell>
        <mxCell id="AlCIt3RjvGgdDV8iWQWg-81" value="ja" style="edgeLabel;html=1;align=center;verticalAlign=middle;resizable=0;points=[];" vertex="1" connectable="0" parent="AlCIt3RjvGgdDV8iWQWg-80">
          <mxGeometry x="-0.5692" y="-5" relative="1" as="geometry">
            <mxPoint as="offset" />
          </mxGeometry>
        </mxCell>
        <mxCell id="7-9NOZU4NKzgfEW0f55U-28" value="2" style="rhombus;whiteSpace=wrap;html=1;fillColor=#fff2cc;strokeColor=#d6b656;rounded=1;" parent="7-9NOZU4NKzgfEW0f55U-1" vertex="1">
          <mxGeometry x="80" y="225" width="35" height="35" as="geometry" />
        </mxCell>
        <mxCell id="AlCIt3RjvGgdDV8iWQWg-1" value="Labeling-Service" style="text;html=1;strokeColor=none;fillColor=none;align=center;verticalAlign=middle;whiteSpace=wrap;rounded=0;" vertex="1" parent="7-9NOZU4NKzgfEW0f55U-1">
          <mxGeometry x="165" width="125" height="30" as="geometry" />
        </mxCell>
        <mxCell id="AlCIt3RjvGgdDV8iWQWg-65" style="edgeStyle=orthogonalEdgeStyle;rounded=0;orthogonalLoop=1;jettySize=auto;html=1;exitX=0.5;exitY=1;exitDx=0;exitDy=0;entryX=0.5;entryY=0;entryDx=0;entryDy=0;" edge="1" parent="7-9NOZU4NKzgfEW0f55U-1" source="7-9NOZU4NKzgfEW0f55U-8" target="AlCIt3RjvGgdDV8iWQWg-62">
          <mxGeometry relative="1" as="geometry" />
        </mxCell>
        <mxCell id="7-9NOZU4NKzgfEW0f55U-8" value="Adresse und Gewicht holen" style="whiteSpace=wrap;html=1;fillColor=#fff2cc;strokeColor=#d6b656;rounded=1;" parent="7-9NOZU4NKzgfEW0f55U-1" vertex="1">
          <mxGeometry x="310" y="270" width="120" height="60" as="geometry" />
        </mxCell>
        <mxCell id="AlCIt3RjvGgdDV8iWQWg-53" value="" style="edgeStyle=orthogonalEdgeStyle;rounded=0;orthogonalLoop=1;jettySize=auto;html=1;" edge="1" parent="7-9NOZU4NKzgfEW0f55U-1" source="8ZjAo5hcSu2O5ueR2Of1-4" target="7-9NOZU4NKzgfEW0f55U-2">
          <mxGeometry relative="1" as="geometry">
            <mxPoint x="330" y="230" as="sourcePoint" />
            <mxPoint x="330" y="348" as="targetPoint" />
          </mxGeometry>
        </mxCell>
        <mxCell id="AlCIt3RjvGgdDV8iWQWg-60" value="gezahlt?" style="edgeLabel;html=1;align=center;verticalAlign=middle;resizable=0;points=[];" vertex="1" connectable="0" parent="AlCIt3RjvGgdDV8iWQWg-53">
          <mxGeometry x="-0.1911" y="2" relative="1" as="geometry">
            <mxPoint as="offset" />
          </mxGeometry>
        </mxCell>
        <mxCell id="7-9NOZU4NKzgfEW0f55U-2" value="1" style="rhombus;whiteSpace=wrap;html=1;fillColor=#fff2cc;strokeColor=#d6b656;rounded=1;" parent="7-9NOZU4NKzgfEW0f55U-1" vertex="1">
          <mxGeometry x="202.5" y="225" width="35" height="35" as="geometry" />
        </mxCell>
        <mxCell id="AlCIt3RjvGgdDV8iWQWg-57" value="" style="edgeStyle=orthogonalEdgeStyle;rounded=0;orthogonalLoop=1;jettySize=auto;html=1;entryX=1;entryY=0.5;entryDx=0;entryDy=0;exitX=0;exitY=0.5;exitDx=0;exitDy=0;" edge="1" parent="7-9NOZU4NKzgfEW0f55U-1" source="7-9NOZU4NKzgfEW0f55U-2" target="7-9NOZU4NKzgfEW0f55U-28">
          <mxGeometry relative="1" as="geometry">
            <mxPoint x="350" y="270" as="targetPoint" />
            <mxPoint x="248" y="253" as="sourcePoint" />
          </mxGeometry>
        </mxCell>
        <mxCell id="AlCIt3RjvGgdDV8iWQWg-58" value="ja" style="edgeLabel;html=1;align=center;verticalAlign=middle;resizable=0;points=[];" vertex="1" connectable="0" parent="AlCIt3RjvGgdDV8iWQWg-57">
          <mxGeometry x="-0.6352" relative="1" as="geometry">
            <mxPoint as="offset" />
          </mxGeometry>
        </mxCell>
        <mxCell id="AlCIt3RjvGgdDV8iWQWg-61" value="nein" style="edgeLabel;html=1;align=center;verticalAlign=middle;resizable=0;points=[];" vertex="1" connectable="0" parent="AlCIt3RjvGgdDV8iWQWg-57">
          <mxGeometry x="-0.6137" y="-1" relative="1" as="geometry">
            <mxPoint as="offset" />
          </mxGeometry>
        </mxCell>
        <mxCell id="AlCIt3RjvGgdDV8iWQWg-59" style="edgeStyle=orthogonalEdgeStyle;rounded=0;orthogonalLoop=1;jettySize=auto;html=1;exitX=0.5;exitY=1;exitDx=0;exitDy=0;" edge="1" parent="7-9NOZU4NKzgfEW0f55U-1">
          <mxGeometry relative="1" as="geometry">
            <mxPoint x="190" y="210" as="sourcePoint" />
            <mxPoint x="190" y="210" as="targetPoint" />
          </mxGeometry>
        </mxCell>
        <mxCell id="AlCIt3RjvGgdDV8iWQWg-62" value="Versandlabel anfrage" style="whiteSpace=wrap;html=1;fillColor=#fff2cc;strokeColor=#d6b656;rounded=1;" vertex="1" parent="7-9NOZU4NKzgfEW0f55U-1">
          <mxGeometry x="310" y="400" width="120" height="60" as="geometry" />
        </mxCell>
        <mxCell id="AlCIt3RjvGgdDV8iWQWg-73" value="" style="edgeStyle=orthogonalEdgeStyle;rounded=0;orthogonalLoop=1;jettySize=auto;html=1;" edge="1" parent="7-9NOZU4NKzgfEW0f55U-1" source="AlCIt3RjvGgdDV8iWQWg-71" target="8ZjAo5hcSu2O5ueR2Of1-19">
          <mxGeometry relative="1" as="geometry" />
        </mxCell>
        <mxCell id="AlCIt3RjvGgdDV8iWQWg-71" value="Versandlabel drucken" style="whiteSpace=wrap;html=1;fillColor=#fff2cc;strokeColor=#d6b656;rounded=1;" vertex="1" parent="7-9NOZU4NKzgfEW0f55U-1">
          <mxGeometry x="150" y="650" width="120" height="60" as="geometry" />
        </mxCell>
        <mxCell id="AlCIt3RjvGgdDV8iWQWg-2" value="activity: Versandlabel holen" style="shape=umlFrame;whiteSpace=wrap;html=1;pointerEvents=0;recursiveResize=0;container=1;collapsible=0;width=160;" vertex="1" parent="1">
          <mxGeometry x="560" y="50" width="450" height="840" as="geometry" />
        </mxCell>
        <mxCell id="AlCIt3RjvGgdDV8iWQWg-31" value="Post System" style="text;html=1;strokeColor=none;fillColor=none;align=center;verticalAlign=middle;whiteSpace=wrap;rounded=0;" vertex="1" parent="AlCIt3RjvGgdDV8iWQWg-2">
          <mxGeometry x="165" width="125" height="30" as="geometry" />
        </mxCell>
        <mxCell id="AlCIt3RjvGgdDV8iWQWg-68" value="" style="edgeStyle=orthogonalEdgeStyle;rounded=0;orthogonalLoop=1;jettySize=auto;html=1;" edge="1" parent="AlCIt3RjvGgdDV8iWQWg-2" source="7-9NOZU4NKzgfEW0f55U-4" target="AlCIt3RjvGgdDV8iWQWg-67">
          <mxGeometry relative="1" as="geometry" />
        </mxCell>
        <mxCell id="7-9NOZU4NKzgfEW0f55U-4" value="Preis berechnen" style="whiteSpace=wrap;html=1;fillColor=#fff2cc;strokeColor=#d6b656;rounded=1;" parent="AlCIt3RjvGgdDV8iWQWg-2" vertex="1">
          <mxGeometry x="165" y="400" width="120" height="60" as="geometry" />
        </mxCell>
        <mxCell id="AlCIt3RjvGgdDV8iWQWg-70" value="" style="edgeStyle=orthogonalEdgeStyle;rounded=0;orthogonalLoop=1;jettySize=auto;html=1;" edge="1" parent="AlCIt3RjvGgdDV8iWQWg-2" source="AlCIt3RjvGgdDV8iWQWg-67" target="AlCIt3RjvGgdDV8iWQWg-69">
          <mxGeometry relative="1" as="geometry" />
        </mxCell>
        <mxCell id="AlCIt3RjvGgdDV8iWQWg-67" value="Versandlabel generieren" style="whiteSpace=wrap;html=1;fillColor=#fff2cc;strokeColor=#d6b656;rounded=1;" vertex="1" parent="AlCIt3RjvGgdDV8iWQWg-2">
          <mxGeometry x="165" y="480" width="120" height="60" as="geometry" />
        </mxCell>
        <mxCell id="AlCIt3RjvGgdDV8iWQWg-69" value="Versandlabel senden" style="whiteSpace=wrap;html=1;fillColor=#fff2cc;strokeColor=#d6b656;rounded=1;" vertex="1" parent="AlCIt3RjvGgdDV8iWQWg-2">
          <mxGeometry x="165" y="570" width="120" height="60" as="geometry" />
        </mxCell>
        <mxCell id="AlCIt3RjvGgdDV8iWQWg-66" style="edgeStyle=orthogonalEdgeStyle;rounded=0;orthogonalLoop=1;jettySize=auto;html=1;exitX=1;exitY=0.5;exitDx=0;exitDy=0;entryX=0;entryY=0.5;entryDx=0;entryDy=0;" edge="1" parent="1" source="AlCIt3RjvGgdDV8iWQWg-62" target="7-9NOZU4NKzgfEW0f55U-4">
          <mxGeometry relative="1" as="geometry" />
        </mxCell>
        <mxCell id="AlCIt3RjvGgdDV8iWQWg-72" value="" style="edgeStyle=orthogonalEdgeStyle;rounded=0;orthogonalLoop=1;jettySize=auto;html=1;" edge="1" parent="1" source="AlCIt3RjvGgdDV8iWQWg-69" target="AlCIt3RjvGgdDV8iWQWg-71">
          <mxGeometry relative="1" as="geometry" />
        </mxCell>
      </root>
    </mxGraphModel>
  </diagram>
</mxfile>
